<?xml version="1.0" encoding="UTF-8" standalone="no"?>
<svg
   version="1.1"
   id="Layer_1"
   x="0px"
   y="0px"
   viewBox="0 0 16 16"
   xml:space="preserve"
   sodipodi:docname="Stopwatch.svg"
   width="16"
   height="16"
   inkscape:version="1.4.3 (0d15f75, 2025-12-25)"
   xmlns:inkscape="http://www.inkscape.org/namespaces/inkscape"
   xmlns:sodipodi="http://sodipodi.sourceforge.net/DTD/sodipodi-0.dtd"
   xmlns="http://www.w3.org/2000/svg"
   xmlns:svg="http://www.w3.org/2000/svg"><defs
     id="defs1" /><sodipodi:namedview
     id="namedview1"
     pagecolor="#000000"
     bordercolor="#000000"
     borderopacity="0.25"
     inkscape:showpageshadow="2"
     inkscape:pageopacity="0.0"
     inkscape:pagecheckerboard="0"
     inkscape:deskcolor="#d1d1d1"
     inkscape:zoom="38.248699"
     inkscape:cx="9.4513019"
     inkscape:cy="13.948187"
     inkscape:window-width="2560"
     inkscape:window-height="1377"
     inkscape:window-x="1912"
     inkscape:window-y="1129"
     inkscape:window-maximized="1"
     inkscape:current-layer="g1" /><style
     type="text/css"
     id="style1">.st0{fill-rule:evenodd;clip-rule:evenodd;}</style><g
     id="g1"><path
       class="st0"
       d="m 8.736711,2.7406192 c 1.36974,0.1387149 2.62043,0.6653179 3.630345,1.4616444 l 0.696909,-0.6987123 c 0.14179,-0.1425681 0.379889,-0.1451369 0.528366,-0.00771 l 0.468173,0.4366951 c 0.14714,0.1374306 0.149816,0.3647689 0.008,0.5060527 l -0.715635,0.7166938 c 0.95641,1.134123 1.530256,2.5790702 1.530256,4.1511728 0,3.6476883 -3.080577,6.6056563 -6.8794648,6.6056563 -3.7988619,0.0013 -6.8794389,-2.95668 -6.8794389,-6.6043682 0,-1.6465976 0.6286891,-3.1531959 1.6666952,-4.3104381 L 1.9856592,4.2703367 C 1.8358439,4.1354749 1.831831,3.9068522 1.9736205,3.764284 L 2.424404,3.3108917 C 2.5661935,3.1683236 2.8029552,3.1644704 2.9514329,3.2993321 l 0.857425,0.7744918 C 4.8535521,3.3006165 6.1350079,2.8099767 7.5315005,2.7200688 V 1.2866812 H 6.2072403 c -0.1765681,0 -0.3210328,-0.1387149 -0.3210328,-0.30825542 V 0.43897881 c 0,-0.16954048 0.1444647,-0.30825541 0.3210328,-0.30825541 h 3.8523937 c 0.176568,0 0.321032,0.13871493 0.321032,0.30825541 v 0.53944697 c 0,0.16954052 -0.144464,0.30825542 -0.321032,0.30825542 H 8.7353734 v 1.453938 z M 7.4432165,6.8905077 h 0.5872224 c 0.1070109,0 0.195295,0.08477 0.195295,0.187522 v 2.3568695 h 1.8071471 c 0.107011,0 0.195295,0.08477 0.195295,0.187522 v 0.5638498 c 0,0.102752 -0.08828,0.187522 -0.195295,0.187522 H 7.2479215 V 10.097648 9.4348992 7.0780297 c 0,-0.1040362 0.088284,-0.187522 0.195295,-0.187522 z m 0.5604697,-2.946408 c 3.0845898,0 5.5859698,2.4018234 5.5859698,5.3636441 0,2.9618202 -2.50138,5.3636442 -5.5859698,5.3636442 -3.0845899,0 -5.5859703,-2.401824 -5.5859703,-5.3636442 0,-2.9618207 2.5013804,-5.3636441 5.5859703,-5.3636441 z"
       id="path1"
       style="stroke-width:0.131075;fill:#ffffff" /></g></svg>
